# xmcd
#
# Track frame offsets:
#	150
#	58792
#	117907
#
# Disc length: 2190 seconds
#
# Revision: 2
# Processed by: cddbd v1.5.2PL0 Copyright (c) Steve Scherf et al.
# Submitted via: EZCDAudioConverter 8.0.2.1
#
DISCID=23088c03
DTITLE=Various Artist - st. Phạm Duy. Con Đường Cái Quan (Thu Âm 1960)
DYEAR=1993
DGENRE=World Pop
TTITLE0=Phần Thứ nhất. Từ Miền Bắc
TTITLE1=Phần Thứ nhì. Qua Miền Trung
TTITLE2=Phần Thứ ba. Vào Miền Nam
EXTD=
EXTT0=
EXTT1=
EXTT2=
PLAYORDER=
